<svg viewBox="0 0 480 488" xmlns="http://www.w3.org/2000/svg" role="img"><title>Точная карта Европы из Natural Earth — 24 страны-фракции + нейтральные</title><desc>Реальные границы Natural Earth 50m, отфильтрованные на регионы игры и упрощённые.</desc><rect width="480" height="488" fill="#9fc6e0"/><path d="M162,315L162,312L161,312L163,311L167,314L167,315L168,314L169,311L172,312L173,313L179,311L182,310L183,309L185,310L186,310L189,312L189,310L188,309L188,307L187,305L187,303L192,301L193,298L195,298L195,296L197,298L202,298L203,296L204,295L205,292L211,294L213,296L217,295L219,296L220,298L219,300L221,305L221,308L221,309L219,310L217,309L216,310L218,312L216,313L216,318L213,321L212,323L204,324L201,326L185,323L182,319L182,317L179,319L175,319L173,322L169,320L168,319L166,320L162,318L162,315Z" fill="hsl(124 55% 62%)" stroke="#2b2f36" stroke-width="0.6" stroke-linejoin="round"/><path d="M471,430L469,430L464,424L467,422L465,419L467,417L464,414L460,416L452,424L452,420L453,420L451,417L452,415L450,415L445,410L448,409L448,406L444,403L444,401L445,398L444,397L441,396L442,395L441,393L443,391L446,392L446,393L448,394L450,394L453,395L454,393L450,388L452,385L453,386L454,386L458,390L459,393L463,394L465,391L467,389L469,386L469,386L476,399L478,402L480,402L480,405L477,406L476,408L475,415L475,418L473,422L472,421L471,425L471,430ZM439,414L439,413L441,413L442,415L444,416L447,415L447,418L448,419L449,424L444,422L442,419L439,414Z" fill="hsl(151 55% 62%)" stroke="#2b2f36" stroke-width="0.6" stroke-linejoin="round"/><path d="M439,413L435,409L433,409L430,408L431,407L429,403L431,400L430,397L428,395L439,394L439,393L441,393L442,395L441,396L444,397L445,398L444,401L444,403L448,406L448,409L445,410L450,415L452,415L451,417L453,420L452,420L452,424L449,424L448,419L447,418L447,415L444,416L442,415L441,413L439,413Z" fill="hsl(267 55% 62%)" stroke="#2b2f36" stroke-width="0.6" stroke-linejoin="round"/><path d="M255,347L260,350L264,348L265,350L264,351L265,354L264,357L263,357L263,360L264,365L267,368L265,372L263,373L263,375L264,377L263,379L256,380L256,379L258,375L255,374L255,373L250,367L249,368L249,370L247,373L246,371L241,368L238,365L238,363L240,363L240,362L238,358L241,357L237,353L239,346L236,346L237,345L237,343L237,342L239,342L236,339L237,338L235,337L235,334L237,331L238,331L240,329L246,330L250,335L250,338L256,343L255,344L256,346L255,347ZM193,338L196,339L197,338L200,338L201,336L203,338L207,338L207,337L207,336L207,335L210,333L209,329L214,327L215,325L218,326L223,332L227,334L231,335L233,333L235,332L235,334L235,337L237,338L236,339L239,342L237,342L237,343L237,345L236,346L234,346L233,343L228,343L227,343L225,342L221,342L220,341L219,342L217,342L215,344L213,342L211,342L210,348L213,351L215,356L221,364L222,365L223,367L225,370L225,371L220,365L216,363L212,364L212,362L206,355L206,354L208,354L204,350L204,348L203,343L201,341L199,340L196,347L196,347L194,343L193,338L193,338ZM239,346L237,353L241,357L238,358L240,361L240,363L236,364L236,367L235,366L233,367L233,370L232,371L232,375L232,376L227,372L225,371L225,370L223,367L222,365L221,364L215,356L213,351L210,348L211,342L213,342L215,344L217,342L219,342L220,341L221,342L225,342L227,343L228,343L233,343L235,346L239,346ZM239,385L239,383L238,381L242,375L242,377L244,376L248,381L249,385L247,390L248,393L250,397L251,398L252,401L251,403L250,404L249,408L246,410L247,412L246,414L244,413L243,409L240,407L239,404L240,404L239,401L240,397L240,391L241,388L241,386L239,385ZM256,380L262,379L266,383L268,387L267,392L266,392L265,394L264,395L260,395L256,398L250,398L248,393L247,390L248,385L250,385L250,383L252,381L254,382L255,381L256,380ZM217,325L215,325L214,327L210,329L210,333L207,335L207,336L207,337L207,338L206,339L203,338L201,336L200,338L197,338L196,339L194,338L193,338L196,337L193,334L194,332L193,332L194,329L192,328L194,325L201,326L204,324L212,323L212,321L213,320L215,320L217,325ZM238,364L241,368L247,372L244,374L244,376L243,377L242,377L242,375L241,375L238,381L239,383L239,385L233,379L233,378L232,378L232,377L232,375L232,371L233,370L233,367L235,366L236,367L236,364L238,364ZM247,373L249,370L249,368L250,367L255,373L255,374L258,375L256,379L256,380L255,381L254,382L252,381L250,383L250,385L248,385L248,381L246,379L244,376L244,374L247,373ZM232,376L232,378L227,373L221,370L222,370L226,372L226,372L227,372L232,376ZM201,349L199,346L199,342L200,345L201,349ZM203,345L202,345L200,343L201,342L203,345Z" fill="hsl(64 55% 62%)" stroke="#2b2f36" stroke-width="0.6" stroke-linejoin="round"/><path d="M120,261L121,262L122,260L123,261L124,260L125,261L126,260L128,263L130,263L132,265L131,269L136,272L135,273L136,274L137,275L135,276L135,278L134,277L132,281L132,282L133,284L132,285L130,286L128,284L125,282L124,280L124,278L122,280L119,280L119,276L118,275L116,276L115,273L112,273L111,269L108,270L107,268L106,265L113,262L114,263L115,263L117,264L120,261Z" fill="hsl(149 55% 62%)" stroke="#2b2f36" stroke-width="0.6" stroke-linejoin="round"/><path d="M66,258L61,261L59,261L56,259L53,259L54,258L52,257L48,258L46,257L45,255L54,249L55,246L54,246L54,242L50,243L53,239L57,236L60,236L62,237L62,235L62,235L64,237L65,236L64,236L62,234L64,231L63,230L64,228L64,225L62,226L58,221L58,220L59,217L63,215L59,215L55,217L53,216L51,218L49,217L48,219L46,216L46,215L47,215L50,208L48,205L49,202L50,202L48,201L49,199L46,203L45,201L47,198L44,201L44,204L43,209L42,210L41,210L42,206L43,204L42,204L43,198L46,192L42,195L38,192L41,190L40,190L43,187L43,185L41,184L41,182L43,181L41,180L42,177L46,177L44,175L45,172L47,172L47,170L47,168L49,169L51,168L52,169L63,167L61,171L55,176L55,177L56,178L54,181L61,179L70,179L72,181L73,182L67,193L65,195L61,197L64,196L66,197L66,198L60,201L57,200L63,202L66,201L70,203L74,207L77,218L81,221L86,226L85,227L87,233L84,231L81,231L84,232L89,236L89,238L87,242L89,243L91,241L97,241L100,244L100,246L99,252L96,254L97,256L92,257L94,258L94,259L90,260L94,262L98,262L98,264L95,266L94,267L88,270L85,269L80,270L75,268L76,269L74,270L71,270L71,271L71,272L67,272L63,270L60,271L58,276L54,274L49,276L46,279L42,278L43,277L45,276L48,273L50,269L51,267L53,266L54,264L62,264L67,257L66,258ZM38,226L34,227L34,225L31,222L29,226L27,226L25,225L22,222L26,220L24,218L27,218L29,214L30,213L31,214L32,212L36,211L38,212L42,217L40,219L43,219L44,221L43,222L42,220L42,223L43,223L42,224L41,224L39,227L38,226ZM38,171L37,173L35,174L36,175L36,175L32,179L31,178L33,176L31,175L32,175L31,174L31,173L34,173L33,172L37,169L38,171ZM38,182L38,184L42,186L39,188L39,186L37,186L36,184L33,183L37,180L37,180L38,182ZM76,143L77,144L78,144L76,151L76,151L76,148L73,146L76,145L75,143L74,143L76,142L76,143ZM41,197L37,198L38,197L38,195L37,194L39,193L41,195L41,197ZM54,236L55,237L52,239L51,237L51,235L53,235L54,236ZM63,162L65,163L64,164L62,164L60,162L61,161L63,161L63,162ZM38,202L39,206L37,207L37,204L35,205L36,203L38,202ZM78,271L77,272L74,271L76,269L78,271ZM46,209L45,208L44,206L46,206L46,209Z" fill="hsl(149 55% 62%)" stroke="#2b2f36" stroke-width="0.6" stroke-linejoin="round"/><path d="M161,312L159,310L156,310L154,308L153,310L154,310L153,311L146,311L146,303L148,297L151,294L151,293L145,291L140,290L138,287L136,287L138,282L136,281L135,278L135,276L137,275L136,274L135,273L136,272L134,270L134,268L133,266L135,265L134,264L135,261L133,256L140,255L140,254L139,252L142,250L142,248L139,247L140,245L142,245L143,241L143,237L142,236L143,232L150,232L151,233L150,234L151,235L152,233L153,234L153,235L154,230L154,229L159,229L162,233L164,233L160,229L157,228L157,228L157,224L155,224L155,222L157,221L157,221L155,217L155,216L159,217L162,216L165,219L165,220L164,221L166,221L167,222L168,222L171,223L173,223L174,224L173,225L172,227L172,228L176,228L179,226L182,225L186,221L189,222L192,226L195,226L196,229L199,231L200,238L198,242L202,247L201,249L203,252L201,256L202,258L202,260L204,261L205,263L204,265L203,269L202,268L201,267L199,266L199,266L200,268L193,270L188,274L185,274L183,277L182,275L182,276L183,278L185,281L184,283L186,287L195,295L195,298L194,299L193,298L192,301L187,304L188,307L188,309L189,310L189,312L186,310L185,310L183,309L182,310L179,311L173,313L172,312L169,311L168,314L167,315L167,314L165,312L163,311L161,312ZM194,223L194,224L193,223L192,224L190,223L190,220L192,218L194,220L193,221L194,223ZM198,228L198,229L196,229L195,226L198,228Z" fill="hsl(322 55% 62%)" stroke="#2b2f36" stroke-width="0.6" stroke-linejoin="round"/><path d="M294,387L296,389L296,391L294,393L294,397L292,400L284,397L282,398L279,397L276,400L274,400L274,404L277,405L278,408L275,405L273,405L275,408L275,410L273,407L271,406L271,408L273,410L271,410L270,407L267,404L266,403L267,402L265,403L264,409L270,420L269,421L269,419L267,419L266,419L267,420L267,422L268,422L264,424L270,427L273,431L275,432L276,439L275,440L271,435L268,437L269,438L269,440L271,441L271,443L269,444L268,442L266,441L265,441L268,450L268,453L269,456L265,451L264,451L264,456L263,455L263,452L260,448L259,449L259,452L258,450L256,447L257,443L253,437L255,433L257,433L258,431L259,431L267,436L267,435L269,434L263,430L262,431L259,430L256,431L254,429L254,431L253,431L250,424L251,423L253,424L253,422L250,422L246,418L244,413L246,414L247,412L246,410L249,408L250,404L251,403L252,401L252,398L256,398L260,395L264,395L265,394L266,392L273,391L276,390L279,389L281,392L283,392L285,393L291,392L292,391L292,387L294,387ZM274,468L277,467L277,468L276,468L278,470L281,469L287,471L289,470L290,473L294,470L293,474L292,474L282,475L281,473L279,472L272,471L272,468L273,468L273,466L274,468ZM271,423L272,425L276,427L278,433L280,434L280,435L278,435L276,430L273,430L272,428L270,425L267,424L270,422L271,423ZM294,418L296,421L296,422L295,422L295,423L292,422L292,421L293,420L292,421L290,420L292,418L294,418ZM306,462L305,462L305,459L306,457L309,456L308,461L306,462ZM292,433L291,433L290,432L291,431L290,428L292,428L292,433ZM249,431L249,432L250,434L250,435L248,434L247,432L247,433L248,429L249,431ZM245,417L245,418L243,416L241,413L243,412L243,414L244,416L245,417ZM251,438L252,439L250,440L249,437L249,436L251,438ZM287,410L286,412L285,411L284,411L284,410L286,410L287,409L287,410Z" fill="hsl(125 55% 62%)" stroke="#2b2f36" stroke-width="0.6" stroke-linejoin="round"/><path d="M428,395L428,394L427,394L423,389L422,389L421,391L416,390L416,391L413,390L415,387L415,384L413,375L408,370L405,369L401,365L402,363L406,364L414,368L423,368L431,374L431,375L431,376L437,374L439,375L440,374L442,375L443,377L446,377L446,377L446,381L452,385L450,387L450,388L454,393L453,394L452,396L450,394L447,394L446,392L443,391L439,393L439,394L428,395Z" fill="hsl(304 55% 62%)" stroke="#2b2f36" stroke-width="0.6" stroke-linejoin="round"/><path d="M163,217L159,217L155,216L154,213L155,212L154,209L151,207L151,202L150,200L151,194L155,195L156,192L158,191L159,192L159,188L158,188L157,188L156,192L153,193L152,191L154,187L161,186L165,181L170,179L169,181L169,183L169,185L168,189L167,193L169,195L172,195L173,196L171,198L169,199L169,198L168,199L167,203L164,204L165,205L162,208L163,211L161,214L163,215L163,217ZM185,204L185,206L184,207L183,208L184,209L184,211L182,212L181,217L180,217L178,212L175,212L174,210L174,207L173,205L176,205L177,202L178,202L179,203L179,205L180,205L180,203L180,202L183,200L186,201L185,204ZM170,207L172,210L171,213L170,214L165,212L164,210L164,208L170,207ZM176,216L179,217L179,219L177,219L173,217L174,215L176,216ZM205,214L202,213L202,211L203,211L206,213L205,214Z" fill="hsl(104 55% 62%)" stroke="#2b2f36" stroke-width="0.6" stroke-linejoin="round"/><path d="M72,365L73,367L75,367L75,370L75,370L76,369L81,371L82,373L84,373L86,375L92,375L92,373L97,375L98,378L100,377L102,379L104,378L107,379L109,378L112,378L113,380L111,380L111,381L112,384L103,393L95,396L92,399L94,400L91,402L84,416L85,422L88,426L82,431L80,438L81,440L76,441L74,443L70,451L67,451L65,452L52,452L50,455L46,456L44,460L42,461L39,459L37,454L36,453L36,452L38,450L36,451L32,446L33,445L32,446L28,446L28,441L28,439L30,435L31,435L32,433L31,433L29,430L29,426L31,424L31,422L30,421L29,416L27,414L31,414L32,412L32,409L31,407L33,405L33,399L32,396L38,390L37,388L35,388L34,384L30,384L28,386L24,385L22,386L22,385L23,383L22,382L17,384L17,382L18,380L17,380L18,378L17,377L17,375L15,376L16,373L14,371L14,368L17,366L21,365L22,365L22,363L26,361L31,363L41,362L51,365L58,364L63,366L64,365L68,366L72,365ZM111,412L113,412L114,413L112,417L111,419L109,417L108,415L106,416L105,415L108,411L111,410L111,412ZM120,412L117,410L117,409L120,409L120,412ZM98,424L98,424L96,424L97,421L99,421L98,424Z" fill="hsl(154 55% 62%)" stroke="#2b2f36" stroke-width="0.6" stroke-linejoin="round"/><path d="M142,332L143,333L146,332L148,333L150,329L150,328L153,326L153,328L156,330L156,332L158,334L157,331L159,328L160,325L161,325L162,328L165,327L166,329L166,328L166,325L166,324L169,324L169,320L173,321L175,319L179,319L182,317L182,319L184,322L194,325L192,328L194,329L193,332L194,332L193,334L196,337L195,337L195,336L194,334L193,335L190,334L189,336L183,339L183,341L185,345L184,347L183,347L183,348L184,355L186,358L193,363L197,375L201,380L206,384L214,385L214,387L212,388L212,390L228,401L232,407L231,411L231,412L229,410L227,406L223,405L222,403L220,404L218,408L217,413L217,414L221,418L222,423L217,425L217,430L215,432L213,436L210,436L210,433L211,432L212,427L214,426L214,423L213,422L213,418L210,410L207,409L204,406L204,403L203,401L199,402L200,400L199,399L197,399L195,393L190,393L186,390L179,382L178,380L175,378L174,378L175,378L174,377L171,371L169,371L169,368L168,364L167,359L166,357L160,353L156,352L154,353L150,359L146,361L145,359L147,356L147,355L144,356L141,353L140,351L142,348L142,347L140,346L139,344L139,343L142,341L143,340L140,335L142,332ZM209,433L206,438L205,443L207,448L206,451L205,453L201,451L199,448L195,447L188,441L186,441L184,438L185,435L187,433L188,435L191,433L195,436L201,435L203,433L206,434L209,432L210,432L209,433ZM162,398L164,403L162,406L163,409L162,420L158,419L157,423L155,423L153,420L153,416L154,412L153,411L153,406L151,401L151,398L154,398L159,393L162,396L162,397L162,398Z" fill="hsl(356 55% 62%)" stroke="#2b2f36" stroke-width="0.6" stroke-linejoin="round"/><path d="M296,206L293,205L288,200L284,199L282,196L279,198L276,198L260,196L252,201L252,193L252,191L255,188L255,184L258,181L264,179L265,181L269,184L270,187L273,189L275,188L278,185L278,177L284,175L285,176L286,175L291,178L295,181L299,181L303,182L306,185L304,191L306,190L308,194L308,198L308,200L306,201L304,204L299,204L296,206Z" fill="hsl(260 55% 62%)" stroke="#2b2f36" stroke-width="0.6" stroke-linejoin="round"/><path d="M266,223L265,220L266,216L264,214L260,214L254,211L252,201L260,196L276,198L279,198L282,196L284,199L288,200L293,205L296,206L295,210L297,211L296,213L293,213L293,214L290,216L288,223L289,224L289,225L289,226L287,225L287,224L284,226L282,226L281,228L278,229L277,228L272,229L271,228L271,226L270,225L267,222L266,223Z" fill="hsl(147 55% 62%)" stroke="#2b2f36" stroke-width="0.6" stroke-linejoin="round"/><path d="M249,32L245,32L247,34L246,37L244,38L246,39L244,41L231,38L229,39L230,43L228,46L223,44L219,47L217,50L213,53L216,56L216,58L208,65L208,68L205,69L201,70L202,74L200,81L194,90L197,91L198,94L197,96L196,97L190,97L187,98L182,103L183,104L181,107L183,110L182,112L182,116L183,120L182,127L188,132L187,136L183,136L186,144L185,148L182,151L180,151L178,155L179,159L178,163L177,164L176,161L172,160L170,157L170,153L169,153L170,155L168,156L169,159L167,162L164,163L162,161L163,162L163,163L160,164L160,165L151,174L145,175L142,175L141,174L140,175L138,174L139,172L134,171L131,169L130,166L131,162L135,164L137,162L135,163L133,161L133,159L137,155L129,160L127,160L127,160L128,154L130,153L132,154L135,152L132,152L132,151L134,148L135,146L138,144L138,145L138,148L139,144L142,143L135,145L133,149L127,154L127,153L128,148L131,148L128,147L127,144L131,141L128,142L127,141L126,136L140,135L142,137L142,135L146,134L145,134L144,133L145,131L144,132L144,134L143,134L139,134L138,133L137,135L129,135L127,134L126,133L126,131L129,130L125,127L125,125L130,125L134,126L140,125L128,124L127,123L127,121L129,122L132,119L135,119L139,117L135,118L137,116L146,116L147,116L146,116L146,115L150,114L140,114L141,111L146,109L150,109L154,113L151,108L152,107L155,106L154,105L152,104L154,103L158,103L158,104L159,105L160,103L163,102L165,105L171,105L171,103L171,102L176,100L174,99L177,97L176,97L174,98L172,99L173,100L173,100L166,104L165,104L163,101L162,101L170,92L178,87L175,88L176,86L177,85L182,82L183,83L185,83L188,80L184,82L182,81L183,77L186,73L189,72L187,70L194,69L197,68L190,68L189,66L191,63L194,61L196,61L194,60L198,57L208,56L200,55L204,51L208,52L209,54L209,53L210,52L207,51L207,49L203,50L203,48L206,46L209,46L207,45L213,43L215,47L214,45L216,44L215,44L214,41L216,40L220,41L225,40L224,39L217,39L217,39L223,35L226,31L229,30L229,28L230,26L235,28L235,28L233,26L236,25L238,23L241,22L241,27L244,22L246,20L247,21L247,24L244,28L245,28L248,25L250,26L248,24L249,21L253,21L254,19L255,19L259,22L258,19L255,16L262,16L265,15L267,16L268,18L270,20L271,19L270,18L271,16L276,13L279,10L277,9L281,6L285,9L287,8L289,9L285,12L283,17L284,18L287,16L287,15L295,8L296,7L297,8L296,11L296,11L296,14L299,13L300,10L303,9L301,7L304,5L310,7L309,9L306,11L309,11L308,12L308,16L312,10L313,8L316,8L321,11L323,10L324,11L324,12L327,13L330,15L330,16L325,18L313,18L319,20L320,23L323,23L324,21L326,23L326,22L329,22L330,24L329,26L324,24L324,25L323,27L318,29L316,31L314,32L314,30L317,26L316,24L310,22L305,19L300,21L295,21L292,24L289,29L289,33L285,35L283,38L274,35L270,37L263,36L262,34L256,29L252,30L253,31L252,32L249,32ZM211,38L213,37L214,35L215,34L217,36L217,37L212,40L208,41L207,41L202,43L199,43L199,42L201,40L205,40L208,37L209,34L208,34L208,32L212,29L213,29L211,32L212,36L211,38ZM224,25L228,26L229,27L228,28L228,30L224,30L221,32L219,32L220,31L220,28L223,28L223,27L222,26L224,25ZM238,19L241,19L239,22L236,23L234,25L230,26L229,25L230,24L231,23L233,22L234,21L236,19L237,16L238,16L238,19ZM206,33L208,35L206,37L201,37L200,36L201,35L203,35L204,34L205,34L205,32L206,33ZM271,9L266,12L262,13L260,11L267,10L269,9L271,9ZM16,9L15,8L21,5L24,4L24,5L24,6L16,9ZM272,12L273,13L270,16L267,14L268,13L272,11L272,12ZM196,42L198,42L191,46L190,44L191,43L196,42ZM288,5L292,6L289,7L286,6L288,5ZM276,12L274,13L273,12L273,11L274,10L275,10L276,11L276,12Z" fill="hsl(176 55% 62%)" stroke="#2b2f36" stroke-width="0.6" stroke-linejoin="round"/><path d="M272,260L273,262L276,268L275,269L276,273L275,274L273,275L265,285L265,285L265,290L266,291L266,292L260,290L259,288L257,287L252,287L251,288L247,287L245,288L244,290L242,290L242,288L241,287L240,285L237,287L236,287L236,286L235,286L235,285L233,283L233,281L228,279L227,280L225,278L225,277L226,276L226,276L224,276L219,274L220,276L217,278L214,274L216,272L215,271L213,272L207,269L207,267L205,266L204,268L203,268L205,263L204,260L202,260L202,258L201,256L203,252L201,249L202,247L198,242L200,238L199,231L201,232L201,230L198,229L214,224L217,220L229,217L231,217L234,219L234,219L232,218L233,222L236,223L241,222L267,222L271,226L272,233L275,240L275,244L271,247L269,250L273,253L272,257L272,260Z" fill="hsl(192 55% 62%)" stroke="#2b2f36" stroke-width="0.6" stroke-linejoin="round"/><path d="M17,384L22,382L23,383L22,385L22,386L24,385L28,386L30,384L34,384L35,388L37,388L38,390L32,396L33,399L33,405L31,407L32,409L32,412L31,414L27,414L29,416L30,421L31,422L31,424L29,426L29,430L31,433L32,433L31,435L30,435L28,439L28,441L28,446L25,448L19,447L16,448L17,443L17,439L17,436L17,433L17,430L18,430L17,429L14,430L14,427L16,426L16,423L17,421L16,422L15,426L12,426L13,418L15,415L17,408L17,406L18,400L18,395L17,389L18,387L17,387L17,384Z" fill="hsl(323 55% 62%)" stroke="#2b2f36" stroke-width="0.6" stroke-linejoin="round"/><path d="M480,264L476,265L475,268L471,271L469,272L471,279L470,280L467,281L462,275L460,274L459,276L458,279L456,281L455,286L455,288L457,291L454,295L453,298L454,300L457,302L457,306L459,309L460,308L466,309L472,321L471,322L469,322L469,324L474,328L470,330L470,333L468,332L466,335L462,336L461,337L460,336L460,338L457,347L456,346L454,350L454,352L457,353L459,356L460,363L461,359L460,364L460,370L467,384L469,386L467,389L465,391L463,394L460,394L458,392L458,391L454,386L453,386L453,385L446,381L446,377L446,377L443,377L442,375L440,374L439,375L437,374L431,376L431,375L431,374L423,368L414,368L406,364L402,363L401,365L391,354L387,352L384,348L382,348L379,345L375,343L375,342L377,341L376,340L376,339L379,341L383,340L383,337L385,331L386,331L386,332L387,330L389,330L386,326L385,326L384,323L390,323L389,321L396,318L395,315L391,317L390,317L392,315L390,315L387,317L388,315L387,314L388,311L391,310L392,308L400,307L401,302L400,302L400,298L399,298L400,295L401,295L399,292L400,292L402,289L402,285L400,285L395,281L393,282L388,279L386,281L383,278L381,274L375,277L371,274L367,275L365,272L365,270L364,266L363,266L362,264L360,264L356,263L356,262L355,258L357,257L357,256L355,254L353,250L352,249L347,249L345,250L342,250L341,252L339,253L336,252L335,249L335,244L333,240L334,238L339,239L344,236L344,235L342,233L342,231L336,230L337,227L334,225L331,221L332,219L329,217L330,214L329,211L330,209L330,207L324,204L322,204L319,206L318,204L318,202L315,201L313,202L311,200L309,201L308,200L308,198L308,194L306,190L304,191L306,185L303,182L302,182L303,178L305,177L303,173L303,170L302,165L305,162L306,159L308,158L307,156L307,152L310,153L311,151L314,152L316,150L324,151L324,150L320,147L315,147L312,145L311,142L312,143L312,142L311,141L305,143L317,133L332,117L335,112L332,108L323,101L324,100L327,96L326,94L323,93L323,91L324,89L323,88L321,87L320,85L321,83L320,81L321,77L320,76L323,76L323,74L322,70L315,60L317,57L322,51L323,50L317,45L312,43L311,39L313,35L310,34L316,32L318,29L323,27L324,26L324,24L329,26L330,25L329,22L335,23L337,22L338,22L338,20L346,23L346,25L339,24L341,26L346,26L346,28L350,27L349,31L347,32L350,31L352,28L362,30L364,29L369,30L383,37L389,41L392,41L398,45L400,45L399,43L400,44L404,48L409,49L410,55L412,56L411,61L405,66L402,68L391,71L385,70L378,68L366,66L361,64L358,64L357,64L358,63L347,61L345,58L346,57L338,56L342,58L342,60L345,62L348,63L348,65L351,66L349,67L355,69L360,72L360,75L359,78L357,79L360,85L361,87L362,88L361,88L361,90L362,92L365,93L367,93L371,95L373,97L381,100L385,98L386,96L385,93L384,92L379,92L374,87L374,85L376,85L377,82L379,82L382,83L386,86L399,90L402,87L405,87L404,85L400,80L399,79L400,77L404,75L407,72L413,70L419,65L422,66L427,66L430,68L429,70L432,70L434,71L434,68L437,63L436,59L435,57L431,55L435,46L434,42L434,41L428,37L433,38L441,38L448,39L454,46L454,47L445,49L440,53L445,56L448,60L452,61L462,59L464,53L463,51L471,50L471,49L470,47L473,47L480,44ZM351,330L351,329L353,329L357,331L358,332L360,332L360,334L362,335L366,340L370,340L371,339L374,339L373,344L369,344L367,343L366,343L363,347L360,347L358,348L355,352L352,352L350,350L351,346L351,343L346,340L343,340L342,339L351,332L351,330ZM251,211L249,215L253,215L254,211L255,211L260,214L264,214L266,216L265,220L266,223L241,222L243,219L244,216L248,215L251,211ZM480,31L477,34L470,36L468,35L466,32L467,29L468,28L471,26L474,26L480,28Z" fill="hsl(293 55% 62%)" stroke="#2b2f36" stroke-width="0.6" stroke-linejoin="round"/><path d="M413,390L416,391L416,390L421,391L422,389L423,389L427,394L428,394L430,397L431,400L429,403L431,407L430,408L432,409L436,410L439,414L437,413L436,414L436,417L433,418L434,421L434,423L435,425L435,430L436,431L434,437L437,439L437,443L439,445L439,447L438,446L435,449L434,445L430,446L423,444L420,447L419,445L413,447L407,447L401,451L396,453L392,452L387,450L381,453L378,453L377,452L375,451L374,456L375,458L373,459L373,461L371,464L369,463L369,462L368,457L371,453L371,451L370,450L365,454L360,451L352,459L345,461L341,459L339,455L333,451L328,450L326,458L324,458L320,459L317,457L315,452L313,453L309,451L307,453L308,452L304,453L303,452L307,451L309,448L301,449L301,447L303,446L303,445L301,443L300,440L301,439L301,436L293,432L294,431L294,427L295,427L296,428L296,431L297,430L298,431L300,430L298,429L297,426L299,424L298,423L298,421L297,419L298,415L292,416L293,410L294,409L297,404L301,404L303,405L305,405L306,405L305,403L306,403L307,403L307,405L315,404L315,404L313,403L315,401L321,400L318,399L316,397L315,396L316,394L332,395L334,392L341,387L348,383L360,384L362,383L363,383L363,385L364,387L366,388L370,388L371,391L373,393L376,392L378,394L389,397L397,395L400,397L403,397L410,393L413,390ZM307,384L307,385L308,389L315,394L314,396L313,397L308,395L306,397L303,397L301,401L297,403L293,409L293,405L297,401L292,402L291,400L294,397L294,393L296,391L296,389L294,387L294,386L295,386L296,384L301,382L303,385L307,384Z" fill="hsl(334 55% 62%)" stroke="#2b2f36" stroke-width="0.6" stroke-linejoin="round"/><path d="M387,317L382,318L380,320L378,320L376,322L374,322L372,323L368,323L362,330L364,328L364,326L362,328L361,329L361,332L362,335L362,335L360,334L360,332L358,332L357,331L353,329L351,329L351,330L350,331L348,329L342,330L337,328L337,327L338,327L338,326L335,324L341,325L343,323L341,324L339,323L338,321L338,319L336,316L338,319L337,323L335,323L335,321L334,323L329,324L328,328L324,333L320,335L320,341L318,339L313,340L313,341L310,341L309,339L311,338L311,336L314,331L315,329L314,326L316,325L316,327L317,325L320,326L320,326L321,327L324,326L322,324L322,321L319,319L319,315L316,312L316,308L316,306L314,306L313,304L311,304L311,304L309,302L303,299L301,301L298,300L294,303L292,306L287,307L282,309L279,306L277,307L269,304L267,306L266,304L264,304L262,302L262,300L261,300L261,298L264,292L266,292L265,290L265,285L265,285L273,275L275,274L276,273L275,269L276,268L273,262L272,259L275,259L278,255L291,255L300,257L301,259L304,259L305,260L306,259L308,259L312,259L313,261L316,258L317,262L324,260L327,263L328,262L327,259L327,258L330,253L335,252L339,253L341,252L342,250L345,250L347,249L352,249L353,250L355,254L357,256L357,257L355,258L356,262L356,263L360,264L362,264L363,266L364,266L365,270L365,272L367,275L371,274L375,277L381,274L383,278L386,281L388,279L393,282L395,281L400,285L402,285L402,289L400,292L399,292L401,295L400,295L399,298L400,298L400,302L401,302L400,307L393,307L391,310L388,311L387,314L388,315L387,317Z" fill="hsl(308 55% 62%)" stroke="#2b2f36" stroke-width="0.6" stroke-linejoin="round"/><path d="M277,74L275,70L273,68L273,65L274,64L275,61L273,57L272,55L274,54L273,53L271,53L272,51L271,47L273,46L269,44L268,42L266,41L260,39L249,32L252,32L253,31L252,30L256,29L262,34L263,36L270,37L274,35L283,38L285,35L289,33L289,29L291,24L295,21L300,21L306,19L310,22L316,24L317,26L314,30L314,32L310,34L313,35L311,39L312,43L317,45L323,50L322,51L317,57L315,60L322,70L323,74L323,76L320,76L321,77L320,81L321,83L320,85L321,87L323,88L324,89L323,91L323,93L326,94L327,96L324,100L323,101L332,108L335,112L332,117L317,133L305,143L303,143L301,142L295,144L296,141L294,144L291,143L291,145L289,146L288,145L280,148L279,149L271,150L267,152L269,149L266,147L266,148L263,149L263,147L264,147L264,146L264,145L259,143L258,142L257,143L255,142L255,137L256,133L256,130L256,130L256,129L257,129L254,124L255,120L253,118L253,115L256,110L257,110L256,108L262,106L262,105L262,105L262,104L263,104L264,102L272,97L278,91L280,87L283,86L286,86L285,85L286,84L285,83L286,78L281,76L280,75L280,73L279,74L277,74Z" fill="hsl(275 55% 62%)" stroke="#2b2f36" stroke-width="0.6" stroke-linejoin="round"/><path d="M146,311L144,313L141,313L141,313L142,314L139,318L137,319L137,322L135,324L134,326L135,328L134,329L134,330L135,329L136,328L136,327L137,326L140,326L140,329L142,332L140,335L143,339L142,341L139,343L139,344L140,346L142,347L142,348L140,351L141,353L144,356L147,355L147,356L145,359L146,361L139,366L138,368L135,370L129,368L128,366L126,366L126,365L124,366L120,364L118,363L117,363L112,368L111,372L111,376L112,378L109,378L107,379L104,378L103,379L100,377L100,376L98,376L97,375L93,373L92,373L92,375L86,375L84,373L82,373L81,371L76,369L75,370L75,367L73,367L72,365L75,363L77,350L78,349L77,348L77,349L78,338L80,340L81,343L82,344L80,338L77,335L77,334L78,335L78,327L72,325L70,321L71,318L69,316L71,315L73,316L71,314L67,314L67,314L67,312L65,312L65,310L63,311L56,308L53,308L52,306L50,305L52,303L51,302L53,302L49,301L49,300L51,297L61,295L63,295L65,299L67,297L70,297L71,298L72,296L72,297L76,297L74,295L74,290L72,286L72,284L77,284L78,287L85,289L90,287L88,286L88,283L96,280L99,276L99,270L100,268L106,265L107,268L108,270L111,269L112,273L115,273L116,276L118,275L119,276L119,280L122,280L124,278L124,280L125,282L128,284L130,286L132,286L134,287L136,286L138,287L140,290L145,291L151,293L151,294L148,297L146,303L146,310L146,311ZM161,373L162,382L159,391L156,389L156,387L155,387L155,384L154,384L155,382L154,381L154,381L155,380L154,379L156,376L158,374L160,374L160,370L161,371L161,373Z" fill="hsl(292 55% 62%)" stroke="#2b2f36" stroke-width="0.6" stroke-linejoin="round"/><path d="M176,162L177,164L178,163L179,159L178,155L180,151L182,151L185,148L186,144L183,136L187,136L188,132L182,127L183,120L182,116L182,112L183,110L181,107L183,104L182,103L187,98L190,97L196,97L198,95L197,91L194,90L200,81L202,74L201,70L205,69L208,68L208,65L216,58L216,56L213,53L214,52L216,51L219,47L223,44L228,46L230,43L229,39L231,38L244,41L246,39L244,38L246,37L247,34L245,32L251,33L251,34L260,39L266,41L268,42L269,44L273,46L271,47L272,51L271,53L273,53L274,54L272,55L273,57L275,61L274,64L273,65L273,68L275,70L277,74L273,74L268,75L266,73L264,74L263,73L262,77L260,77L261,77L259,78L259,79L256,79L256,80L257,81L255,80L256,83L253,87L256,91L252,95L250,99L243,103L242,104L239,104L236,107L233,108L232,110L231,111L232,111L232,112L230,113L227,112L228,114L227,115L228,116L225,118L223,117L224,119L225,120L224,121L223,125L224,128L222,127L221,129L222,140L225,141L226,143L228,142L229,144L233,146L232,148L234,148L236,152L233,155L228,158L229,158L232,157L233,158L231,159L230,161L220,167L214,167L219,168L220,169L218,170L219,173L218,173L218,177L217,177L217,178L218,182L216,185L217,188L212,199L211,200L210,199L202,200L203,201L201,201L198,204L198,205L199,208L198,209L195,209L191,210L188,209L189,205L185,198L187,198L186,196L188,196L188,195L188,193L184,190L181,183L181,183L180,180L179,179L179,176L177,175L177,174L177,171L175,171L174,163L175,161L176,162ZM237,178L235,179L234,182L235,183L232,186L231,189L229,190L230,187L229,185L229,181L232,178L235,178L235,177L237,178ZM217,198L216,198L216,197L216,194L220,184L221,184L217,198Z" fill="hsl(162 55% 62%)" stroke="#2b2f36" stroke-width="0.6" stroke-linejoin="round"/><path d="M302,182L299,181L295,181L291,178L286,175L278,177L280,171L278,171L276,172L274,171L272,167L273,165L272,165L271,164L272,163L271,160L276,159L276,158L278,156L287,156L287,154L296,155L299,157L306,157L307,156L308,158L306,159L305,162L302,165L303,170L303,173L305,177L303,178L302,182ZM265,167L267,168L270,170L269,170L265,172L263,173L261,176L260,176L260,176L261,173L259,172L260,170L259,169L262,169L262,168L265,167ZM267,165L264,167L263,164L260,163L263,163L265,161L267,163L268,165L267,165Z" fill="hsl(12 55% 62%)" stroke="#2b2f36" stroke-width="0.6" stroke-linejoin="round"/><path d="M336,252L331,252L329,255L327,259L328,262L327,263L324,260L317,262L316,258L313,261L312,259L308,259L306,259L305,260L304,259L301,259L300,257L289,254L278,255L275,259L273,258L272,259L272,260L272,257L273,253L269,250L271,247L274,245L275,243L274,239L271,228L277,228L278,229L281,228L282,226L284,226L287,224L287,225L289,225L289,224L288,223L290,216L293,214L293,213L296,213L297,211L295,210L296,206L299,204L304,204L306,201L308,200L309,201L311,200L313,202L315,201L318,202L318,204L319,206L322,204L324,204L330,207L330,209L329,211L330,214L329,217L332,219L331,221L334,225L337,227L336,230L342,231L342,233L344,235L344,236L339,239L334,238L333,240L335,244L335,249L336,252Z" fill="#c9cdd4" stroke="#2b2f36" stroke-width="0.6" stroke-linejoin="round"/><path d="M307,384L303,385L301,382L296,384L294,387L292,387L292,391L291,392L285,393L283,392L281,392L279,389L267,392L268,387L266,384L262,379L264,378L263,375L263,373L265,372L267,368L264,364L263,360L263,358L264,357L265,354L268,356L267,358L267,360L269,359L287,362L293,357L300,355L302,357L306,358L307,360L309,360L311,361L311,364L311,365L308,365L306,368L306,374L303,377L305,379L307,384Z" fill="#c9cdd4" stroke="#2b2f36" stroke-width="0.6" stroke-linejoin="round"/><path d="M261,300L262,300L262,302L264,304L266,304L267,306L264,309L262,309L260,312L260,313L257,318L256,322L254,324L254,326L252,328L251,328L249,330L246,330L241,329L238,331L233,333L232,335L228,334L223,332L219,327L217,325L215,320L213,320L216,318L216,313L218,312L216,310L217,309L219,310L221,309L221,308L221,305L226,308L234,308L234,306L240,304L241,303L244,304L247,302L248,299L255,298L257,301L261,300Z" fill="#c9cdd4" stroke="#2b2f36" stroke-width="0.6" stroke-linejoin="round"/><path d="M30,213L29,214L27,218L24,218L26,220L22,222L25,225L27,226L29,226L31,222L34,225L34,227L38,227L37,228L38,233L39,241L38,246L36,249L37,250L32,251L32,250L31,251L27,252L23,256L20,255L21,256L20,257L13,260L9,260L12,258L11,258L7,259L11,255L7,256L5,256L5,255L9,252L5,252L5,251L7,250L10,250L9,248L11,246L17,245L16,244L14,245L11,245L9,246L12,243L13,242L12,241L13,239L16,238L12,237L11,236L9,236L9,235L7,235L7,233L10,233L9,232L9,231L11,230L11,229L9,229L9,226L8,227L8,225L7,225L7,224L11,223L15,225L16,224L19,224L19,223L22,221L23,219L20,220L18,219L21,216L21,214L21,213L26,212L25,211L26,211L27,213L26,215L28,214L27,211L29,211L29,210L32,211L30,213Z" fill="#c9cdd4" stroke="#2b2f36" stroke-width="0.6" stroke-linejoin="round"/><path d="M344,472L346,473L349,472L350,475L353,473L354,475L352,475L349,478L347,478L346,480L345,479L342,478L341,475L341,473L341,474L344,472Z" fill="#c9cdd4" stroke="#2b2f36" stroke-width="0.6" stroke-linejoin="round"/><path d="M135,278L135,281L138,282L136,287L134,287L132,286L133,284L132,282L132,281L134,277L135,278Z" fill="#c9cdd4" stroke="#2b2f36" stroke-width="0.6" stroke-linejoin="round"/><path d="M296,302L298,300L301,301L303,299L309,302L311,304L311,304L313,304L314,306L316,306L316,308L316,312L319,315L319,319L322,321L322,324L324,326L321,327L320,326L320,326L317,325L316,327L316,325L314,326L315,329L314,331L311,336L311,338L309,339L307,337L308,336L308,332L309,323L307,319L304,314L299,303L296,302Z" fill="#c9cdd4" stroke="#2b2f36" stroke-width="0.6" stroke-linejoin="round"/><path d="M134,270L132,270L131,269L132,267L132,265L130,263L128,263L126,260L125,261L124,260L123,261L122,260L121,262L115,261L114,259L116,259L120,260L118,259L119,259L118,256L122,249L124,241L126,241L130,237L133,236L140,235L143,237L143,241L142,245L140,245L139,247L142,248L142,250L139,252L140,254L140,255L133,256L135,261L134,264L135,265L133,266L134,268L134,270ZM120,261L117,264L115,263L114,263L113,262L120,261Z" fill="#c9cdd4" stroke="#2b2f36" stroke-width="0.6" stroke-linejoin="round"/><path d="M309,339L310,341L313,341L313,340L318,339L320,341L319,347L315,348L316,345L314,346L314,347L313,350L314,350L312,354L311,361L309,360L307,360L306,358L302,357L300,355L293,357L287,362L269,359L267,360L267,358L268,356L264,352L265,350L264,348L260,350L255,347L256,346L255,344L256,343L250,338L250,335L246,330L253,328L260,313L260,312L262,309L264,309L269,304L277,307L280,306L282,309L287,307L292,306L294,303L297,302L299,303L304,314L307,319L309,323L308,332L308,336L307,337L309,339Z" fill="#c9cdd4" stroke="#2b2f36" stroke-width="0.6" stroke-linejoin="round"/><path d="M264,292L261,298L261,300L257,301L255,298L248,299L247,302L244,304L241,303L240,304L234,306L234,308L225,308L221,305L219,300L221,295L226,294L229,292L229,289L233,286L236,286L236,287L237,287L240,285L241,287L242,288L242,290L244,290L245,288L247,287L251,288L252,287L255,287L259,288L260,290L264,292Z" fill="#c9cdd4" stroke="#2b2f36" stroke-width="0.6" stroke-linejoin="round"/><path d="M235,286L233,286L229,289L229,292L226,294L221,295L220,298L219,296L217,295L213,296L211,294L205,292L204,295L203,296L202,298L198,298L186,287L184,283L185,281L183,278L182,276L183,277L185,274L188,274L193,270L200,268L199,266L201,267L202,269L204,268L205,266L207,267L207,269L213,272L215,271L216,272L215,273L214,274L217,278L220,276L219,274L224,276L226,276L226,276L225,277L225,278L227,280L228,279L233,281L235,286Z" fill="#c9cdd4" stroke="#2b2f36" stroke-width="0.6" stroke-linejoin="round"/><path d="M161,312L162,312L161,318L164,318L166,320L168,319L169,320L169,324L166,324L166,325L166,328L165,327L162,328L161,325L160,325L159,328L157,331L158,333L157,334L156,332L156,330L153,328L153,326L150,328L150,329L148,333L146,332L142,333L140,329L140,328L140,326L137,326L136,327L136,328L135,329L134,330L135,328L134,326L135,324L137,322L137,319L141,315L142,314L141,313L142,312L144,313L146,311L153,311L154,310L153,310L154,308L156,310L159,310L161,312Z" fill="#c9cdd4" stroke="#2b2f36" stroke-width="0.6" stroke-linejoin="round"/></svg>